<?xml version="1.0" encoding="UTF-8" standalone="no"?>
<!-- Created with Inkscape (http://www.inkscape.org/) -->

<svg
   width="36.472229mm"
   height="51.07547mm"
   viewBox="0 0 36.47223 51.07547"
   version="1.1"
   id="svg1"
   inkscape:export-filename="lapiz.svg"
   inkscape:export-xdpi="96"
   inkscape:export-ydpi="96"
   xmlns:inkscape="http://www.inkscape.org/namespaces/inkscape"
   xmlns:sodipodi="http://sodipodi.sourceforge.net/DTD/sodipodi-0.dtd"
   xmlns="http://www.w3.org/2000/svg"
   xmlns:svg="http://www.w3.org/2000/svg">
  <sodipodi:namedview
     id="namedview1"
     pagecolor="#ffffff"
     bordercolor="#000000"
     borderopacity="0.25"
     inkscape:showpageshadow="2"
     inkscape:pageopacity="0.0"
     inkscape:pagecheckerboard="0"
     inkscape:deskcolor="#d1d1d1"
     inkscape:document-units="mm" />
  <defs
     id="defs1" />
  <g
     inkscape:label="Capa 1"
     inkscape:groupmode="layer"
     id="layer1"
     transform="translate(-63.220436,-23.579561)">
    <path
       id="path25"
       style="color:#000000;fill:#ffffff;stroke-width:0.999995;stroke-linecap:round;stroke-linejoin:round;stroke-miterlimit:2.1;-inkscape-stroke:none;paint-order:fill markers stroke"
       d="m 87.635515,23.579561 -24.198378,0.599967 c -0.07535,-2.7e-5 -0.14716,0.01288 -0.216701,0.03139 v 4.999433 c 0.06952,0.01853 0.141328,0.03142 0.216701,0.0314 l 21.667268,-0.599967 c 0.28976,2.145962 0.0861,5.772237 0,9.045722 l -17.65455,-1.542211 c -0.0395,-0.0033 -0.079,-0.0039 -0.11859,-0.0018 -0.0691,0.0033 -0.13765,0.01689 -0.20624,0.02616 -0.0638,-0.0042 -0.12694,-0.01036 -0.19099,-0.0096 -0.0447,8.15e-4 -0.0893,0.0051 -0.13342,0.01308 L 63.29369,36.77441 c -0.0265,0.0045 -0.04776,0.01969 -0.07324,0.0266 v 5.046959 c 0.113418,0.0302 0.235104,0.03848 0.359718,0.017 l 1.119277,-0.192717 v 13.11599 h -1.262294 c -0.07535,-2.6e-5 -0.147142,0.01288 -0.216701,0.03139 v 4.999434 c 0.06952,0.01852 0.141312,0.03186 0.216701,0.03182 h 1.262294 v 8.577477 l -0.95751,-0.37062 c -0.176961,-0.06862 -0.356664,-0.06807 -0.521483,-0.02354 v 5.252324 l 3.092273,1.201676 c 0.0125,0.0051 0.0252,0.009 0.0379,0.01308 0.0823,0.02759 0.16564,0.05035 0.25028,0.06933 l -0.0706,-0.01831 c 0.0299,0.0095 0.0604,0.0178 0.0907,0.02616 0.01,0.0033 0.0197,0.0059 0.0296,0.0087 0.34101,0.08083 0.69518,0.08935 1.03991,0.02615 0.0126,-8.36e-4 0.0253,-0.0018 0.0379,-0.0034 l 0.0244,-0.0052 29.29766,-5.786025 c 1.18075,-0.232767 2.04067,-1.278356 2.04145,-2.481838 v -4.3e-4 -4.38e-4 -4.4e-4 -4.38e-4 c 0.20764,-8.445565 1.241175,-17.200848 0,-25.103117 8.4e-4,-1.305929 -1.01081,-2.410992 -2.31179,-2.52457 l -6.61315,-0.576422 c -0.1133,-2.98702 -0.0859,-7.239953 0,-12.020267 -2.2e-4,-1.387767 -1.14378,-2.530887 -2.53154,-2.531111 z m -18.64476,16.088792 17.02973,1.488144 c 0.43629,0.03763 0.77129,0.402745 0.77132,0.840649 l -0.075,12.284937 c -8e-5,0.465931 -0.37778,0.843629 -0.84371,0.843704 h -16.80518 c -0.46593,-7.5e-5 -0.84362,-0.377773 -0.8437,-0.843704 l -0.14999,-13.773078 c 3e-5,-0.494696 0.42366,-0.88326 0.91651,-0.840652 z m 21.75534,2.083317 4.19977,0.184439 c 0.43612,0.03763 0.77106,0.402471 0.77133,0.840211 0.23271,7.649145 1.39685,16.333215 0,22.171746 4.6e-4,0.403483 -0.28477,0.750841 -0.68064,0.828879 l -25.95554,5.125441 c -0.52181,0.102684 -1.00735,-0.297069 -1.00678,-0.82888 l -0.29998,-8.81594 c 8e-5,-0.465939 0.37777,-0.84362 0.84371,-0.843696 l 20.81789,-1.050382 c 0.47605,-7.6e-5 0.84374,-0.36765 0.8437,-0.843704 l -0.44998,-15.9279 c 2.9e-4,-0.494525 0.42384,-0.882809 0.91652,-0.840214 z"
       inkscape:export-filename="2d3d.svg"
       inkscape:export-xdpi="96"
       inkscape:export-ydpi="96" />
  </g>
</svg>
