<?xml version="1.0" encoding="UTF-8" standalone="no"?>
<!-- Created with Inkscape (http://www.inkscape.org/) -->

<svg
   width="22.025625mm"
   height="28.341999mm"
   viewBox="0 0 22.025626 28.341999"
   version="1.1"
   id="svg1"
   inkscape:export-filename="lapiz.svg"
   inkscape:export-xdpi="96"
   inkscape:export-ydpi="96"
   sodipodi:docname="blender.svg"
   inkscape:version="1.3 (0e150ed6c4, 2023-07-21)"
   xmlns:inkscape="http://www.inkscape.org/namespaces/inkscape"
   xmlns:sodipodi="http://sodipodi.sourceforge.net/DTD/sodipodi-0.dtd"
   xmlns="http://www.w3.org/2000/svg"
   xmlns:svg="http://www.w3.org/2000/svg">
  <sodipodi:namedview
     id="namedview1"
     pagecolor="#ffffff"
     bordercolor="#000000"
     borderopacity="0.25"
     inkscape:showpageshadow="2"
     inkscape:pageopacity="0.0"
     inkscape:pagecheckerboard="0"
     inkscape:deskcolor="#d1d1d1"
     inkscape:document-units="mm"
     inkscape:zoom="3.8979558"
     inkscape:cx="104.15716"
     inkscape:cy="122.24356"
     inkscape:window-width="2560"
     inkscape:window-height="1377"
     inkscape:window-x="-8"
     inkscape:window-y="-8"
     inkscape:window-maximized="1"
     inkscape:current-layer="layer1" />
  <defs
     id="defs1" />
  <g
     inkscape:label="Capa 1"
     inkscape:groupmode="layer"
     id="layer1"
     transform="translate(-70.364183,-41.306645)">
    <path
       id="path19"
       style="color:#000000;fill:#ffffff;stroke-width:0.999999;stroke-linecap:round;stroke-linejoin:round;stroke-miterlimit:2.1;-inkscape-stroke:none;paint-order:fill markers stroke"
       d="m 78.245833,41.306921 a 1.7333733,1.7333733 0 0 1 0.44966,0.05106 1.7333733,1.7333733 0 0 1 1.06654,0.788851 1.7333733,1.7333733 0 0 1 -0.59359,2.379096 c -2.31929,1.393593 -4.3109,2.751255 -6.18063,4.102805 2.0642,-0.53731 4.21344,-0.873763 6.35202,-0.956653 2.4516,-0.09502 4.88924,0.142252 7.16714,0.790047 a 1.7333733,1.7333733 0 0 1 1.19284,2.141724 1.7333733,1.7333733 0 0 1 -2.14083,1.19283 c -2.32259,-0.660507 -5.01135,-0.808282 -7.71385,-0.529978 4.52572,2.266607 9.1122,4.53166 13.74012,7.468111 a 1.7333733,1.7333733 0 0 1 0.53476,2.392236 1.7333733,1.7333733 0 0 1 -2.39224,0.535057 c -3.03565,-1.926145 -6.08977,-3.56983 -9.16973,-5.144852 0.73152,2.550851 0.28635,5.15888 -0.78706,7.302401 -1.20385,2.403994 -3.16547,4.33115 -5.51958,5.198002 -1.21083,0.445869 -2.54201,0.653175 -3.88722,0.62911 v -3.50116 c 0.9521,0.04047 1.88228,-0.08463 2.68872,-0.38159 1.3112,-0.482825 2.77779,-1.819646 3.61791,-3.497283 0.84011,-1.677642 1.08163,-3.588585 0.358,-5.371478 -1.10641,-2.725996 -3.74209,-4.358774 -6.66463,-4.406164 v -6.237961 c 2.09413,-1.531597 4.34467,-3.089907 7.01875,-4.696685 a 1.7333733,1.7333733 0 0 1 0.8629,-0.247524 z m -7.88165,13.811774 c 2.07995,0.06231 3.75018,1.988465 3.75018,4.360779 0,2.372337 -1.67023,4.298464 -3.75018,4.360784 z" />
  </g>
</svg>
