<?xml version="1.0" encoding="UTF-8" standalone="no"?>
<!-- Created with Inkscape (http://www.inkscape.org/) -->

<svg
   width="64"
   height="64"
   viewBox="0 0 16.933333 16.933333"
   version="1.1"
   id="svg1"
   inkscape:version="1.3 (0e150ed6c4, 2023-07-21)"
   sodipodi:docname="fs.svg"
   xmlns:inkscape="http://www.inkscape.org/namespaces/inkscape"
   xmlns:sodipodi="http://sodipodi.sourceforge.net/DTD/sodipodi-0.dtd"
   xmlns="http://www.w3.org/2000/svg"
   xmlns:svg="http://www.w3.org/2000/svg">
  <sodipodi:namedview
     id="namedview1"
     pagecolor="#ffffff"
     bordercolor="#000000"
     borderopacity="0.25"
     inkscape:showpageshadow="2"
     inkscape:pageopacity="0.0"
     inkscape:pagecheckerboard="0"
     inkscape:deskcolor="#d1d1d1"
     inkscape:document-units="mm"
     inkscape:zoom="4"
     inkscape:cx="39.375"
     inkscape:cy="18.125"
     inkscape:window-width="1920"
     inkscape:window-height="1017"
     inkscape:window-x="2552"
     inkscape:window-y="79"
     inkscape:window-maximized="1"
     inkscape:current-layer="layer1" />
  <defs
     id="defs1" />
  <g
     inkscape:label="Capa 1"
     inkscape:groupmode="layer"
     id="layer1">
    <path
       id="rect2"
       style="fill:#ff5555;stroke-width:0.799999;stroke-linecap:round;stroke-linejoin:round;stroke-miterlimit:2.1;paint-order:fill markers stroke"
       d="M 0.81752116 0 C 0.36472955 -7.8332168e-17 3.133293e-16 0.36472955 0 0.81752116 L 0 7.4083333 L 2.1166667 7.4083333 L 2.1166667 2.8468547 C 2.1166667 2.4424268 2.4702902 2.1166667 2.9093831 2.1166667 L 7.4083333 2.1166667 L 7.4083333 0 L 0.81752116 0 z M 9.525 0 L 9.525 2.1166667 L 14.02395 2.1166667 C 14.463044 2.1166667 14.816667 2.4424268 14.816667 2.8468547 L 14.816667 7.4083333 L 16.933333 7.4083333 L 16.933333 0.81752116 C 16.933333 0.36472955 16.568605 3.133293e-16 16.115812 0 L 9.525 0 z M 0 9.525 L 0 16.115812 C -7.8332168e-17 16.568605 0.36472955 16.933333 0.81752116 16.933333 L 7.4083333 16.933333 L 7.4083333 14.816667 L 2.9093831 14.816667 C 2.4702902 14.816667 2.1166667 14.490905 2.1166667 14.086479 L 2.1166667 9.525 L 0 9.525 z M 14.816667 9.525 L 14.816667 14.086479 C 14.816667 14.490905 14.463044 14.816667 14.02395 14.816667 L 9.525 14.816667 L 9.525 16.933333 L 16.115812 16.933333 C 16.568605 16.933333 16.933333 16.568605 16.933333 16.115812 L 16.933333 9.525 L 14.816667 9.525 z " />
  </g>
</svg>
