<?xml version="1.0" encoding="UTF-8" standalone="no"?>
<!-- Created with Inkscape (http://www.inkscape.org/) -->

<svg
   width="77.425949mm"
   height="63.414219mm"
   viewBox="0 0 77.425952 63.414219"
   version="1.1"
   id="svg1"
   inkscape:export-filename="blender.svg"
   inkscape:export-xdpi="96"
   inkscape:export-ydpi="96"
   sodipodi:docname="mano.svg"
   inkscape:version="1.3 (0e150ed6c4, 2023-07-21)"
   xmlns:inkscape="http://www.inkscape.org/namespaces/inkscape"
   xmlns:sodipodi="http://sodipodi.sourceforge.net/DTD/sodipodi-0.dtd"
   xmlns="http://www.w3.org/2000/svg"
   xmlns:svg="http://www.w3.org/2000/svg">
  <sodipodi:namedview
     id="namedview1"
     pagecolor="#ffffff"
     bordercolor="#000000"
     borderopacity="0.25"
     inkscape:showpageshadow="2"
     inkscape:pageopacity="0.0"
     inkscape:pagecheckerboard="0"
     inkscape:deskcolor="#d1d1d1"
     inkscape:document-units="mm"
     inkscape:zoom="2.4637449"
     inkscape:cx="244.74937"
     inkscape:cy="197.46363"
     inkscape:window-width="2560"
     inkscape:window-height="1377"
     inkscape:window-x="-8"
     inkscape:window-y="-8"
     inkscape:window-maximized="1"
     inkscape:current-layer="layer1" />
  <defs
     id="defs1" />
  <g
     inkscape:label="Capa 1"
     inkscape:groupmode="layer"
     id="layer1"
     transform="translate(-44.439945,-31.010048)">
    <path
       id="path26"
       style="color:#000000;fill:#808080;stroke-linecap:round;stroke-linejoin:round;stroke-miterlimit:2.1;-inkscape-stroke:none;paint-order:fill markers stroke;fill-opacity:1"
       d="m 44.979904,31.010048 c 0.0098,0.003 0.01964,0.009 0.02945,0.0119 a 1.0001,1.0001 0 0 0 0.174667,0.0372 v -0.001 z m 40.113316,3.07268 c -0.47993,0.0213 -0.96426,0.10628 -1.44694,0.26769 -1.11349,0.37236 -2.00182,1.20341 -2.76004,2.24482 -1.53087,-1.15706 -3.40995,-1.93415 -5.4591,-1.96939 -1.57931,-0.0272 -3.33193,0.52898 -4.55527,1.89446 -0.82417,0.91991 -1.26806,2.19939 -1.54668,3.62975 -0.48326,-0.0203 -0.95921,-0.13836 -1.44177,-0.0429 -1.83383,0.36272 -3.60092,1.71254 -4.39353,3.79563 -0.31883,0.83791 -0.16697,1.29836 -0.061,1.78181 -2.7131,0.2371 -4.86723,1.52758 -6.02134,3.48661 -1.336034,2.26781 -1.376894,5.01123 -0.938444,7.73751 -3.526207,1.33259 -7.582906,2.89188 -9.63094,3.57756 -0.86667,0.29015 -1.621816,0.99164 -1.988509,1.74666 -0.36669,0.75502 -0.436011,1.50771 -0.402042,2.21485 0.06795,1.41428 0.559591,2.76531 1.246952,4.0411 0.687365,1.27579 1.568392,2.45621 2.724898,3.32693 1.156509,0.87073 3.003717,1.47516 4.609538,0.59221 l -0.08837,0.046 c 1.907293,-0.92934 3.553783,-1.47809 5.110807,-2.03605 l 4.27674,11.84837 c 0.33091,1.04132 0.31024,3.29816 0.009,5.66167 -0.28323,2.22412 -0.73183,4.54162 -0.97255,6.49625 h 4.04678 c 0.22966,-1.66779 0.61258,-3.7748 0.89452,-5.98878 0.32517,-2.55353 0.56175,-5.1051 -0.1664,-7.3887 l -0.0114,-0.0362 -4.39973,-12.17859 c 0.58691,-0.31093 1.16456,-0.62659 1.68103,-1.04283 1.29333,-1.04232 2.134,-2.86764 1.99316,-4.76043 -0.14084,-1.89277 -0.91808,-3.92575 -2.28461,-6.6797 l -0.7891,-1.58956 -1.6707,0.59324 c -0.0735,0.026 -0.25338,0.0952 -0.33228,0.12351 -0.13748,-1.74262 -0.0223,-3.34449 0.52658,-4.27623 0.64506,-1.09494 1.77157,-1.61732 3.98374,-1.42472 0.24444,0.57899 0.43234,1.08979 0.70176,1.70326 1.24878,2.84341 2.66039,6.0438 3.05253,7.6538 l 3.88658,-0.94775 c -0.58927,-2.41936 -2.04385,-5.50907 -3.27628,-8.31526 -0.61622,-1.40309 -1.17635,-2.71376 -1.52291,-3.68401 -0.16386,-0.45879 -0.26995,-0.82287 -0.32142,-1.05575 0.32989,-0.68604 0.75979,-0.99082 1.30224,-1.09812 0.60563,-0.11978 1.31557,0.0695 1.75493,0.4563 1.0561,0.93009 2.18673,2.92412 3.08715,5.17023 0.90043,2.24611 1.62167,4.69905 2.29961,6.64352 l 3.77703,-1.31672 c -0.62009,-1.77852 -1.36794,-4.32632 -2.36523,-6.81405 -0.98527,-2.45773 -2.17744,-4.8878 -4.09536,-6.61045 0.13476,-1.21594 0.42808,-2.02677 0.73639,-2.37091 0.38058,-0.42479 0.79098,-0.57608 1.50585,-0.56379 1.39573,0.024 3.54654,1.31817 4.25814,2.28823 3.31634,4.65089 4.82901,9.66419 7.1453,14.94224 l 3.66489,-1.60869 c -2.01911,-4.60088 -3.60815,-9.57206 -6.80423,-14.47043 0.47197,-1.01027 0.94344,-1.51627 1.29088,-1.63246 0.4364,-0.14593 1.16567,-0.0678 2.19624,0.54519 2.06118,1.22605 4.59604,4.449 5.64565,7.16132 l 0.70177,1.81384 0.0971,-0.0346 3.20756,8.21603 c 0.32863,1.09995 0.68269,2.23466 0.92036,3.47627 0.3266,1.70612 0.35719,3.37844 0.20205,3.91139 -1.25115,4.29814 -5.93319,9.34884 -10.34459,14.62547 -4.15115,4.96532 -8.20918,10.37091 -7.94009,16.56488 h 4.01423 c -0.24085,-4.43388 2.9127,-9.11864 6.99338,-13.99966 4.28072,-5.12031 9.40472,-10.18429 11.1187,-16.07241 0.54501,-1.87242 0.26183,-3.81448 -0.11473,-5.78156 -0.26866,-1.40355 -0.64217,-2.58211 -0.9927,-3.75791 4.43024,-1.55144 8.82588,-3.32637 10.84688,-3.93929 l 0.53382,-0.16278 8.34109,-9.30021 c 0.0359,-0.0287 0.0771,-0.0619 0.15503,-0.12041 0.20476,-0.15365 0.41379,-0.2081 0.88315,-0.77049 0.11741,-0.14059 0.2848,-0.31505 0.42633,-0.77411 0.14189,-0.45896 0.0524,-1.46586 -0.4594,-2.01384 -0.25589,-0.27398 -0.498,-0.4252 -0.71003,-0.51314 -0.21202,-0.0879 -0.39401,-0.11243 -0.52917,-0.13333 -0.27034,-0.0419 -0.4421,-0.0326 -0.60358,-0.0222 -0.57943,0.0373 -1.14924,0.18922 -1.96887,0.40825 l -11.7073,1.54925 -10.31875,3.6711 c -1.50201,-2.97108 -3.6365,-5.82392 -6.3531,-7.43986 -1.21993,-0.72567 -2.62251,-1.23294 -4.06228,-1.16892 z m 29.43335,7.82175 -4.25038,4.73614 c -0.20181,-0.082 -0.50242,-0.13004 -0.61857,-0.21911 -0.28473,-0.21866 -0.37543,-0.26766 -0.36794,-0.84697 l 0.0191,-1.46348 -1.39061,-0.46147 c -0.0692,-0.0232 -0.008,0.002 -0.0537,-0.0176 0.0516,-0.13562 0.3005,-0.54205 0.50384,-0.91312 z m -10.72958,2.08359 c 0.0259,0.64604 0.161,1.33318 0.58343,1.91565 0.29434,0.40591 0.77755,0.54468 1.18339,0.80098 0.1613,0.67571 0.38943,1.25935 0.76275,1.78387 -2.18259,0.82634 -4.35418,1.61935 -7.13187,2.58951 l -1.86914,-4.78886 z m -43.65418,15.82281 c 0.55781,1.36797 1.22485,2.89909 1.27072,3.51554 0.0678,0.9116 0.007,0.92875 -0.51315,1.34773 -0.74442,0.59997 -3.18295,1.46527 -6.137094,2.66753 -10e-4,-0.53869 0.0673,-1.07584 -0.0501,-1.61437 -0.25976,-1.19168 -0.992464,-2.25267 -1.924431,-3.1874 2.773411,-1.03875 5.243665,-1.94472 7.354075,-2.72903 z m -10.522879,3.90725 -0.45682,0.92036 c 1.108466,0.55012 1.462723,1.12436 1.640727,1.94097 0.09398,0.43114 -0.157855,1.11665 -0.248564,1.70067 -0.440422,-0.41302 -0.948586,-0.96433 -1.339453,-1.68982 -0.469439,-0.8713 -0.749729,-1.83797 -0.773596,-2.33474 -0.0044,-0.0921 -0.0036,-0.0516 0.0021,-0.10181 0.294641,-0.10046 0.82531,-0.31087 1.175639,-0.43563 z" />
  </g>
</svg>
