<?xml version="1.0" encoding="UTF-8" standalone="no"?>
<!-- Created with Inkscape (http://www.inkscape.org/) -->

<svg
   width="37.156139mm"
   height="24.293337mm"
   viewBox="0 0 37.156141 24.293337"
   version="1.1"
   id="svg1"
   inkscape:export-filename="blender.svg"
   inkscape:export-xdpi="96"
   inkscape:export-ydpi="96"
   xmlns:inkscape="http://www.inkscape.org/namespaces/inkscape"
   xmlns:sodipodi="http://sodipodi.sourceforge.net/DTD/sodipodi-0.dtd"
   xmlns="http://www.w3.org/2000/svg"
   xmlns:svg="http://www.w3.org/2000/svg">
  <sodipodi:namedview
     id="namedview1"
     pagecolor="#ffffff"
     bordercolor="#000000"
     borderopacity="0.25"
     inkscape:showpageshadow="2"
     inkscape:pageopacity="0.0"
     inkscape:pagecheckerboard="0"
     inkscape:deskcolor="#d1d1d1"
     inkscape:document-units="mm" />
  <defs
     id="defs1" />
  <g
     inkscape:label="Capa 1"
     inkscape:groupmode="layer"
     id="layer1"
     transform="translate(-62.167029,-42.651716)">
    <path
       id="path32"
       style="color:#000000;fill:#ffffff;stroke-width:1;-inkscape-stroke:none"
       d="m 76.958584,42.652304 c -1.425143,-0.0283 -2.992796,0.96728 -3.650099,2.55037 -0.657305,1.58309 -0.689013,3.6012 -0.0976,6.36397 0.01577,0.0737 0.02819,0.0814 -0.07491,0.33011 -0.04593,0.11081 -0.179411,0.37736 -0.270424,0.55204 l -3.025015,1.24053 c -2.666438,1.09343 -4.248614,3.69643 -5.494576,6.56135 -0.919901,2.11518 -1.627143,4.45499 -2.178931,6.69438 h 3.770701 c 0.47572,-1.8348 1.024792,-3.66208 1.717658,-5.25523 1.082282,-2.48855 2.470902,-4.21699 3.554984,-4.66155 l 4.333928,-1.77764 0.292493,-0.67078 c 0.117442,-0.26904 0.378522,-0.68746 0.633165,-1.30176 0.254643,-0.61431 0.474516,-1.5122 0.270113,-2.46708 -0.502369,-2.34681 -0.311787,-3.7109 -0.09853,-4.22451 0.213254,-0.51361 0.165953,-0.32795 0.245557,-0.32638 0.07961,0.002 0.348428,0.14716 0.41465,0.25116 0.06622,0.10399 0.153936,-0.0597 -0.06248,0.22908 -0.226986,0.30284 -0.530813,0.89464 -0.375796,1.62472 0.155017,0.73007 0.703614,1.16912 1.045638,1.34528 0.684049,0.35232 1.039869,0.29237 1.448477,0.28658 0.817218,-0.0115 1.690778,-0.18182 2.604463,-0.51101 1.336104,-0.48136 1.815352,-0.50511 3.078164,-0.17966 1.634361,0.42123 4.232122,0.53243 6.607976,0.46159 1.75332,-0.0523 2.97164,0.003 3.70667,0.11283 -0.26163,0.37136 -0.64863,0.7682 -0.5368,0.70963 -0.50108,0.26244 -0.9736,0.55534 -1.37575,1.14542 -0.22168,0.32528 -0.33249,0.80263 -0.3503,1.29212 -0.66491,0.3426 -2.30136,0.94168 -5.315854,1.73663 -3.260796,0.8599 -5.380181,3.38437 -6.691587,6.12991 -0.936028,1.95964 -1.483844,4.04742 -1.900737,6.05065 h 3.659115 c 0.376164,-1.58711 0.857698,-3.15429 1.498207,-4.49525 1.048577,-2.19529 2.379249,-3.67403 4.354756,-4.19499 3.17814,-0.8381 4.9837,-1.42717 6.20887,-2.0807 0.61258,-0.32677 1.15489,-0.66052 1.56006,-1.38165 0.19542,-0.34782 0.25921,-0.77761 0.25271,-1.18644 0.94113,-0.57865 1.47714,-1.33216 1.91597,-2.14506 0.24003,-0.44466 0.43529,-0.89984 0.55825,-1.40993 0.1229,-0.50984 0.28312,-1.12174 -0.16692,-1.98187 v -10e-4 c -0.64494,-1.23047 -1.82592,-1.55952 -2.98647,-1.74687 -1.16083,-0.1874 -2.58732,-0.21798 -4.49805,-0.16101 -2.091575,0.0624 -4.987034,-0.19095 -5.599321,-0.34875 -1.725423,-0.44469 -3.385403,-0.34556 -5.117225,0.26203 -0.0671,-0.54762 -0.206506,-1.07516 -0.478063,-1.50163 -0.742566,-1.16617 -1.961992,-1.89109 -3.387134,-1.91939 z" />
  </g>
</svg>
