<?xml version="1.0" encoding="UTF-8" standalone="no"?>
<!-- Created with Inkscape (http://www.inkscape.org/) -->

<svg
   width="13.793656mm"
   height="37.258457mm"
   viewBox="0 0 13.793657 37.258457"
   version="1.1"
   id="svg1"
   inkscape:export-filename="lapiz.svg"
   inkscape:export-xdpi="96"
   inkscape:export-ydpi="96"
   sodipodi:docname="urjc.svg"
   inkscape:version="1.3 (0e150ed6c4, 2023-07-21)"
   xmlns:inkscape="http://www.inkscape.org/namespaces/inkscape"
   xmlns:sodipodi="http://sodipodi.sourceforge.net/DTD/sodipodi-0.dtd"
   xmlns="http://www.w3.org/2000/svg"
   xmlns:svg="http://www.w3.org/2000/svg">
  <sodipodi:namedview
     id="namedview1"
     pagecolor="#ffffff"
     bordercolor="#000000"
     borderopacity="0.25"
     inkscape:showpageshadow="2"
     inkscape:pageopacity="0.0"
     inkscape:pagecheckerboard="0"
     inkscape:deskcolor="#d1d1d1"
     inkscape:document-units="mm"
     inkscape:zoom="8.3878913"
     inkscape:cx="24.678431"
     inkscape:cy="55.735105"
     inkscape:window-width="2560"
     inkscape:window-height="1377"
     inkscape:window-x="-8"
     inkscape:window-y="-8"
     inkscape:window-maximized="1"
     inkscape:current-layer="layer1" />
  <defs
     id="defs1" />
  <g
     inkscape:label="Capa 1"
     inkscape:groupmode="layer"
     id="layer1"
     transform="translate(-63.092924,-29.753616)">
    <path
       id="path3"
       style="fill:#808080;fill-opacity:1;stroke-width:0.800003;stroke-linecap:round;stroke-linejoin:round;stroke-miterlimit:2.1;paint-order:fill markers stroke"
       d="m 68.003735,29.755771 c -0.758943,-0.03782 -1.545763,0.424792 -1.724443,1.188558 -0.285886,1.222026 0.530676,2.154278 1.686202,2.122868 1.155529,-0.03141 2.030326,-1.523732 1.236617,-2.659786 -0.297639,-0.426022 -0.74301,-0.628946 -1.198376,-0.65164 z m -4.910811,4.572847 v 3.845244 c 1.283395,-0.891297 1.210767,-3.003049 0.02119,-3.832325 -0.0069,-0.0048 -0.01427,-0.0082 -0.02119,-0.01292 z m 4.14755,0.09819 c -0.950263,0.02376 -1.902759,0.573706 -2.165759,1.706355 -0.420799,1.81224 1.206368,3.363506 3.004984,2.760039 1.798619,-0.603468 1.837005,-3.013063 0.719336,-3.953248 -0.419125,-0.352568 -0.988402,-0.527403 -1.558561,-0.513146 z m 5.857007,0.277502 c -0.130623,-0.0096 -0.261968,-0.0087 -0.392224,0.0031 -0.994678,0.08911 -1.93576,0.786463 -2.162659,1.881022 -0.34575,1.6679 1.388576,3.245774 3.166732,2.599841 1.778155,-0.645932 1.832975,-3.165997 0.507979,-4.089673 -0.341599,-0.238134 -0.72796,-0.365338 -1.119828,-0.39429 z m -0.971,5.377449 c -1.360496,0.137486 -5.260611,1.048014 -9.033557,0.492994 v 4.149617 c 2.998521,0.422495 7.838736,-0.477183 8.987048,-0.654223 0.189164,-0.02916 1.871886,-0.310065 1.872754,-1.984892 8.28e-4,-1.674831 -1.316321,-2.055051 -1.826245,-2.003496 z m 0.59893,5.487521 c -0.737949,0.04167 -1.413423,0.457899 -1.591634,1.405599 -0.92977,3.651836 -1.158614,7.586438 -2.192632,9.741007 -0.440027,0.916882 -2.42621,3.805993 -5.848221,2.773991 v 4.080371 c 2.11607,1.092121 7.261598,-0.07268 8.441862,-3.247347 0.324816,2.437048 0.589672,4.113352 1.912544,5.950541 1.322875,1.837191 4.211297,-0.08631 3.24528,-2.133719 -0.966018,-2.047405 -1.30061,-3.837639 -1.372009,-5.468401 -0.0714,-1.630759 -0.337554,-6.956616 -0.310575,-11.376566 0.0064,-1.047758 -1.206077,-1.786389 -2.284615,-1.725476 z" />
  </g>
</svg>
