<?xml version="1.0" encoding="UTF-8" standalone="no"?>
<!-- Created with Inkscape (http://www.inkscape.org/) -->

<svg
   width="9.1688766mm"
   height="37.252857mm"
   viewBox="0 0 9.1688768 37.252857"
   version="1.1"
   id="svg1"
   inkscape:export-filename="lapiz.svg"
   inkscape:export-xdpi="96"
   inkscape:export-ydpi="96"
   xmlns:inkscape="http://www.inkscape.org/namespaces/inkscape"
   xmlns:sodipodi="http://sodipodi.sourceforge.net/DTD/sodipodi-0.dtd"
   xmlns="http://www.w3.org/2000/svg"
   xmlns:svg="http://www.w3.org/2000/svg">
  <sodipodi:namedview
     id="namedview1"
     pagecolor="#ffffff"
     bordercolor="#000000"
     borderopacity="0.25"
     inkscape:showpageshadow="2"
     inkscape:pageopacity="0.0"
     inkscape:pagecheckerboard="0"
     inkscape:deskcolor="#d1d1d1"
     inkscape:document-units="mm" />
  <defs
     id="defs1" />
  <g
     inkscape:label="Capa 1"
     inkscape:groupmode="layer"
     id="layer1"
     transform="translate(-59.780853,-28.077478)">
    <path
       id="path3"
       style="fill:#ffffff;stroke-width:0.800003;stroke-linecap:round;stroke-linejoin:round;stroke-miterlimit:2.1;paint-order:fill markers stroke"
       d="m 59.877143,28.077478 c -0.03222,-7e-6 -0.06416,0.0042 -0.09629,0.0059 v 3.342858 c 0.0416,0.0017 0.0826,0.0059 0.124964,0.0038 1.22038,-0.06072 2.14378,-1.770481 1.359327,-2.704319 -0.364653,-0.434083 -0.879324,-0.648072 -1.388001,-0.648182 z m -0.09629,4.779146 v 4.674751 c 0.138454,-0.02538 0.277663,-0.05856 0.417584,-0.108135 1.887604,-0.668698 1.954212,-3.254558 0.552207,-4.19827 -0.298027,-0.200606 -0.629979,-0.315349 -0.969791,-0.368346 z m 5.379345,0.166099 c -0.130623,-0.0096 -0.261774,-0.0086 -0.39203,0.0032 -0.99468,0.08911 -1.935496,0.786433 -2.162395,1.880994 -0.34575,1.667904 1.388305,3.245547 3.166465,2.599612 1.778159,-0.645934 1.833265,-3.165834 0.508267,-4.089512 -0.341601,-0.238134 -0.728439,-0.365257 -1.120307,-0.39421 z m -0.970726,5.377474 c -1.369501,0.138395 -2.883641,0.304282 -4.408619,0.356816 v 4.15059 c 1.604415,-0.120091 3.204565,-0.340697 4.362187,-0.519174 0.189164,-0.02916 1.872024,-0.310248 1.872892,-1.985079 8.28e-4,-1.674833 -1.316534,-2.05471 -1.82646,-2.003153 z m 0.598641,5.48748 c -0.737949,0.04167 -1.412966,0.457746 -1.591179,1.405448 -0.92977,3.651844 -1.158604,7.586646 -2.192624,9.741219 -0.449285,0.936169 -0.857224,1.418725 -1.223457,1.598658 v 5.957416 c 0.602054,-0.03261 1.16417,-0.165619 1.495821,-0.406676 0.935829,-0.680196 1.783866,-1.990726 2.321015,-3.542602 0.324818,2.437052 0.589592,4.113368 1.912468,5.950561 1.322877,1.837193 4.211638,-0.08631 3.245619,-2.133726 -0.96602,-2.047409 -1.301016,-3.837706 -1.372415,-5.46847 -0.0714,-1.630763 -0.337361,-6.956377 -0.310382,-11.376337 0.0064,-1.04776 -1.206326,-1.786404 -2.284866,-1.725491 z"
       inkscape:export-filename="urjc.svg"
       inkscape:export-xdpi="96"
       inkscape:export-ydpi="96" />
  </g>
</svg>
