<?xml version="1.0" encoding="UTF-8" standalone="no"?>
<!-- Created with Inkscape (http://www.inkscape.org/) -->

<svg
   width="192.72337mm"
   height="297.23691mm"
   viewBox="0 0 192.72337 297.23691"
   version="1.1"
   id="svg1"
   inkscape:version="1.3 (0e150ed6c4, 2023-07-21)"
   sodipodi:docname="cybermaster.svg"
   xml:space="preserve"
   xmlns:inkscape="http://www.inkscape.org/namespaces/inkscape"
   xmlns:sodipodi="http://sodipodi.sourceforge.net/DTD/sodipodi-0.dtd"
   xmlns:xlink="http://www.w3.org/1999/xlink"
   xmlns="http://www.w3.org/2000/svg"
   xmlns:svg="http://www.w3.org/2000/svg"><sodipodi:namedview
     id="namedview1"
     pagecolor="#ffffff"
     bordercolor="#000000"
     borderopacity="0.25"
     inkscape:showpageshadow="2"
     inkscape:pageopacity="0.0"
     inkscape:pagecheckerboard="0"
     inkscape:deskcolor="#d1d1d1"
     inkscape:document-units="mm"
     inkscape:zoom="0.70710678"
     inkscape:cx="121.62237"
     inkscape:cy="829.43626"
     inkscape:window-width="2560"
     inkscape:window-height="1377"
     inkscape:window-x="-8"
     inkscape:window-y="-8"
     inkscape:window-maximized="1"
     inkscape:current-layer="layer1" /><defs
     id="defs1"><linearGradient
       id="linearGradient51"
       inkscape:collect="always"><stop
         style="stop-color:#faa000;stop-opacity:1;"
         offset="0"
         id="stop50" /><stop
         style="stop-color:#faad00;stop-opacity:1;"
         offset="1"
         id="stop51" /></linearGradient><linearGradient
       id="linearGradient48"
       inkscape:collect="always"><stop
         style="stop-color:#faa000;stop-opacity:1;"
         offset="0"
         id="stop48" /><stop
         style="stop-color:#fa0000;stop-opacity:1;"
         offset="1"
         id="stop49" /></linearGradient><linearGradient
       inkscape:collect="always"
       xlink:href="#linearGradient51"
       id="linearGradient43"
       x1="37.376209"
       y1="234.88875"
       x2="161.78162"
       y2="234.88875"
       gradientUnits="userSpaceOnUse" /><linearGradient
       inkscape:collect="always"
       xlink:href="#linearGradient51"
       id="linearGradient45"
       x1="69.238121"
       y1="240.71732"
       x2="127.89353"
       y2="240.71732"
       gradientUnits="userSpaceOnUse" /><linearGradient
       inkscape:collect="always"
       xlink:href="#linearGradient51"
       id="linearGradient47"
       x1="111.16562"
       y1="252.50545"
       x2="80.276093"
       y2="252.50545"
       gradientUnits="userSpaceOnUse" /><linearGradient
       inkscape:collect="always"
       xlink:href="#linearGradient48"
       id="linearGradient49"
       x1="100.27951"
       y1="300.30164"
       x2="100.27951"
       y2="160.89626"
       gradientUnits="userSpaceOnUse" /></defs><g
     inkscape:label="Capa 1"
     inkscape:groupmode="layer"
     id="layer1"
     transform="translate(-8.6383136,-0.6082455)"><g
       id="g1"
       transform="translate(11.694476,5.8208336)"><path
         style="opacity:0.334722;fill:#fa0000;stroke-width:0.7;paint-order:stroke fill markers"
         d="m 49.600323,68.091517 c -1.58096,16.433958 -2.299389,28.910789 5.436168,56.309233 21.712175,11.62521 44.198632,12.49048 67.581549,-0.002 l 11.19716,-5.13968 c 3.12586,-15.07088 2.79301,-33.180215 4.06981,-50.562408 -2.5322,-4.013186 -4.98279,-3.902811 -8.49752,-4.389692 -10.9871,-1.521983 -18.46612,-5.397068 -23.84052,-10.340746 L 97.351673,39.969619 81.381955,39.602499 72.873301,53.232385 C 65.211716,64.026906 56.707289,60.038418 49.600323,68.091517 Z"
         id="path3"
         sodipodi:nodetypes="cccccsccccc" /><path
         style="opacity:0.334722;fill:#fa0000;stroke-width:0.7;paint-order:stroke fill markers"
         d="m 74.265748,68.175983 c -10.906842,3.210513 -10.480201,13.46158 -13.874523,24.888911 11.192371,7.604126 10.497886,22.472956 13.675215,36.528426 1.068912,4.72852 27.75872,4.31385 28.26823,0.27536 1.7204,-13.63631 0.94933,-28.18053 12.20674,-37.538027 -1.21566,-13.238761 -4.633,-21.675565 -12.20865,-25.9004 L 95.930433,76.46036 77.930422,77.087073 Z"
         id="path2"
         sodipodi:nodetypes="ccssccccc" /><path
         style="opacity:0.334722;fill:#fa0000;stroke-width:0.7;paint-order:stroke fill markers"
         d="m 97.438841,42.055587 7.006769,12.461716 -8.569731,13.92829 -0.906665,-12.148364 c 2.704133,-3.218963 2.43535,-8.853421 2.469627,-14.241642 z"
         id="path4"
         sodipodi:nodetypes="ccccc" /><path
         style="opacity:0.334722;fill:#fa0000;stroke-width:0.7;paint-order:stroke fill markers"
         d="m 94.01992,57.172401 0.906665,11.425258 -15.504622,0.561814 1.331369,-12.374552 z"
         id="path5"
         sodipodi:nodetypes="ccccc" /><path
         style="opacity:0.334722;fill:#fa0000;stroke-width:0.7;paint-order:stroke fill markers"
         d="m 78.647007,67.631825 1.22193,-11.603413 C 78.391493,52.433285 78.851584,47.04165 80.300955,42.745288 L 74.100636,54.00003 Z"
         id="path6"
         sodipodi:nodetypes="ccccc" /><path
         style="opacity:0.334722;fill:#fa0000;stroke-width:0.7;paint-order:stroke fill markers"
         d="m 51.122566,67.84115 c 1.929387,-1.850955 4.637216,-3.522566 8.97869,-4.658511 -3.934494,22.30357 -2.180772,43.053681 0.225071,62.687631 -1.687742,0.13888 -3.277479,-1.49455 -4.286778,-2.03411 -5.467427,-17.57515 -7.73069,-38.766844 -4.916983,-55.99501 z"
         id="path7"
         sodipodi:nodetypes="ccccc" /><path
         style="opacity:0.334722;fill:#fa0000;stroke-width:0.7;paint-order:stroke fill markers"
         d="m 121.01976,63.971761 c 3.37473,1.170112 5.39896,0.748578 8.73485,1.728072 -4.23569,20.511628 -8.46314,35.060257 -5.19885,56.480457 -1.78959,1.83569 -4.24386,2.34202 -6.71027,2.82403 -0.32663,-23.8261 0.73665,-37.897515 3.17427,-61.032559 z"
         id="path8"
         sodipodi:nodetypes="ccccc" /><path
         style="opacity:0.334722;fill:#fa0000;stroke-width:0.7;paint-order:stroke fill markers"
         d="m 130.46658,67.785803 c 1.11426,-3.334601 6.1106,-0.935333 6.03521,1.347907 -0.45862,13.888708 -1.8471,29.626958 -2.70886,46.60894 -0.18585,3.66241 -8.44512,6.85697 -8.87387,3.215 -1.85275,-15.73795 2.20909,-41.181096 5.54752,-51.171847 z"
         id="path9"
         sodipodi:nodetypes="sssss" /><circle
         style="opacity:0.334722;fill:#fa0000;stroke-width:0.7;paint-order:stroke fill markers"
         id="path10"
         cx="87.15757"
         cy="48.921429"
         r="4.0383186" /><path
         style="opacity:0.334722;fill:#fa0000;stroke-width:0.7;paint-order:stroke fill markers"
         d="m 74.186933,55.523584 3.958794,12.91475 -0.45429,1.427761 z"
         id="path16" /><path
         style="opacity:0.334722;fill:#fa0000;stroke-width:0.7;paint-order:stroke fill markers"
         d="m 79.1192,69.541604 -0.38939,1.946947 16.613949,-0.778779 -0.584083,-1.687354 z"
         id="path17" /><path
         style="opacity:0.334722;fill:#fa0000;stroke-width:0.7;paint-order:stroke fill markers"
         d="m 104.9487,55.004398 -8.761264,13.563733 0.38939,1.557557 9.020854,-14.667003 z"
         id="path18" /><path
         style="opacity:0.334722;fill:#fa0000;stroke-width:0.7;paint-order:stroke fill markers"
         d="m 74.486146,67.438039 c -11.161962,3.28561 -11.438069,14.005908 -14.911787,25.700533 11.45417,7.781988 10.927,22.769168 14.17865,37.153408 1.093914,4.83912 28.937181,4.41475 29.458611,0.2818 1.76064,-13.95528 0.6962,-28.63176 12.21693,-38.208137 -1.2441,-13.548426 -5.52437,-22.39051 -13.27722,-26.714168 l -6.552079,10.26472 -17.362712,0.641372 z"
         id="path19"
         sodipodi:nodetypes="ccssccccc" /><path
         id="circle10"
         style="opacity:0.334722;fill:#fa0000;stroke-width:0.7;paint-order:stroke fill markers"
         d="m 76.23662,82.49043 c -3.041401,-2e-4 -5.507073,2.46524 -5.50716,5.506641 0.0049,2.365216 1.519564,4.463147 3.76308,5.212085 0,0 -0.667477,0.954283 0,2.176094 0.667477,1.221811 2.820163,1.405546 3.48764,0 0.667477,-1.405546 0,-2.176094 0,-2.176094 2.243516,-0.748938 3.758203,-2.846869 3.76308,-5.212085 -8.7e-5,-3.041197 -2.465443,-5.506554 -5.50664,-5.506641 z"
         sodipodi:nodetypes="ccczzccc" /><path
         id="path15"
         style="opacity:0.334722;fill:#fa0000;stroke-width:0.7;paint-order:stroke fill markers"
         d="m 99.519956,82.49043 c -3.041401,-2e-4 -5.507073,2.46524 -5.50716,5.506641 0.0049,2.365216 1.519564,4.463147 3.76308,5.212085 0,0 -0.667477,0.954283 0,2.176094 0.667477,1.221811 2.820164,1.405546 3.487644,0 0.66747,-1.405546 0,-2.176094 0,-2.176094 2.24351,-0.748938 3.7582,-2.846869 3.76308,-5.212085 -9e-5,-3.041197 -2.46545,-5.506554 -5.506644,-5.506641 z"
         sodipodi:nodetypes="ccczzccc" /><path
         id="path20"
         style="opacity:0.334722;fill:#fa0000;stroke-width:0.7;paint-order:stroke fill markers"
         d="m 76.236648,81.756191 c -3.363146,-2.21e-4 -6.089658,2.726034 -6.089754,6.08918 0.0054,2.615429 1.680317,4.935297 4.161171,5.763464 0,0 -0.738089,1.055235 0,2.4063 0.738088,1.351064 3.118504,1.554236 3.856592,0 0.738088,-1.554237 0,-2.4063 0,-2.4063 2.480854,-0.828167 4.155778,-3.148035 4.161171,-5.763464 -9.7e-5,-3.36292 -2.726259,-6.089084 -6.08918,-6.08918 z"
         sodipodi:nodetypes="ccczzccc" /><path
         id="path21"
         style="opacity:0.334722;fill:#fa0000;stroke-width:0.7;paint-order:stroke fill markers"
         d="m 99.411092,81.802081 c -3.363146,-2.21e-4 -6.089658,2.726034 -6.089754,6.08918 0.0054,2.615429 1.680317,4.935297 4.161171,5.763464 0,0 -0.738089,1.055235 0,2.4063 0.738088,1.351064 3.118501,1.554236 3.856591,0 0.73809,-1.554237 0,-2.4063 0,-2.4063 2.48085,-0.828167 4.15578,-3.148035 4.16117,-5.763464 -1e-4,-3.36292 -2.72626,-6.089084 -6.089178,-6.08918 z"
         sodipodi:nodetypes="ccczzccc" /><rect
         style="opacity:0.334722;fill:#fa0000;stroke-width:0.7;paint-order:stroke fill markers"
         id="rect15"
         width="15.756244"
         height="2.8943305"
         x="78.762169"
         y="109.58528" /><path
         style="opacity:0.334722;fill:#fa0000;stroke-width:0.7;paint-order:stroke fill markers"
         d="m 132.99354,125.72915 c 1.10868,-11.34093 9.3106,-28.158296 21.90732,-17.16781 8.23809,-17.715631 28.23295,-12.444694 32.42635,-4.077 5.42319,-60.694154 7.72483,-98.800404 -67.61524,-109.6969281 0,0 6.79592,43.5289671 -20.321725,44.6211311 -2.022817,0.08147 -4.256596,0.290592 -4.55275,-11.70151 -2.48674,5.622242 -10.099337,5.347572 -12.671769,0.551199 C 81.85418,39.892217 79.399407,40.27915 77.464577,40.169016 51.675467,38.701058 60.315669,-4.9890299 60.315669,-4.9890299 -3.6687378,3.3468577 -7.9178817,49.556408 -0.21695249,103.73372 10.147644,90.416338 23.678823,95.413629 28.277289,105.62791 c 11.688877,-11.46257 24.667505,8.70992 24.553677,24.03816 22.146505,-0.51525 30.505174,5.26353 37.247174,24.84759 4.860311,-18.66151 23.69808,-27.13621 42.9154,-28.78451 z"
         id="path22"
         sodipodi:nodetypes="ccccsccscccccc" /></g><g
       id="g2"
       transform="translate(4.7204895)"
       inkscape:export-filename="g2.png"
       inkscape:export-xdpi="94.96096"
       inkscape:export-ydpi="94.96096"><circle
         style="font-variation-settings:normal;opacity:1;vector-effect:none;fill:url(#linearGradient49);fill-opacity:1;stroke:none;stroke-width:2;stroke-linecap:butt;stroke-linejoin:miter;stroke-miterlimit:4;stroke-dasharray:none;stroke-dashoffset:0;stroke-opacity:1;-inkscape-stroke:none;paint-order:stroke fill markers"
         id="path47"
         cx="100.27951"
         cy="229.37071"
         r="68.474449" /><path
         style="opacity:1;fill:url(#linearGradient43);stroke:#000000;stroke-width:4;stroke-dasharray:none;stroke-opacity:1;paint-order:stroke fill markers"
         d="m 124.17858,261.31928 c 0.71318,-7.29574 6.12153,-12.82287 14.22464,-5.75256 5.29933,-11.39667 18.16144,-8.00582 20.85894,-2.62278 3.48858,-39.04523 4.96916,-63.55941 -43.49495,-70.56926 0,0 4.37162,28.00266 -13.07238,28.70527 -1.30122,0.0524 -2.14576,-2.77517 -2.33627,-8.64674 -2.12621,3.68269 -6.891533,3.50599 -8.546305,0.42043 -0.332049,4.32469 -1.976955,8.78637 -3.221575,8.71553 -16.589393,-0.94436 -9.214248,-27.75272 -9.214248,-27.75272 -41.159329,5.36257 -44.152275,34.57051 -39.198489,69.42338 6.667247,-8.56722 15.371466,-5.35241 18.329527,1.21855 7.519118,-7.374 16.162423,0.19419 16.0892,10.05502 14.246211,-0.33146 18.300185,3.2538 22.63712,15.85243 3.1265,-12.00515 14.58284,-17.98619 26.94479,-19.04655 z"
         id="path39"
         sodipodi:nodetypes="ccccsccscccccc" /><g
         id="g51"
         transform="matrix(0.9669794,0,0,0.96704047,3.2547029,6.8113976)"
         style="stroke-width:1.03412"><path
           style="font-variation-settings:normal;opacity:1;vector-effect:none;fill:url(#linearGradient45);fill-opacity:1;stroke:#000000;stroke-width:2.06823;stroke-linecap:butt;stroke-linejoin:miter;stroke-miterlimit:4;stroke-dasharray:none;stroke-dashoffset:0;stroke-opacity:1;-inkscape-stroke:none;paint-order:stroke fill markers;stop-color:#000000;stop-opacity:1"
           d="m 70.876815,229.2405 c -1.002737,10.42338 -1.458406,18.33691 3.447933,35.7146 13.771122,7.37338 28.033342,7.92219 42.864142,-0.001 l 7.10189,-3.25988 c 1.9826,-9.55883 1.77149,-21.04483 2.58131,-32.06963 -1.60607,-2.5454 -3.16037,-2.47539 -5.38962,-2.7842 -6.96866,-0.96533 -11.71228,-3.42313 -15.12104,-6.5587 l -5.19794,-8.87747 c -3.329845,-0.58869 -6.678113,-0.97473 -10.128919,-0.23285 l -5.396682,8.64487 c -4.859422,6.84652 -10.253423,4.31678 -14.761074,9.42453 z"
           id="path23"
           sodipodi:nodetypes="cccccscccccc" /><path
           style="font-variation-settings:normal;opacity:1;vector-effect:none;fill:url(#linearGradient47);fill-opacity:1;stroke:#000000;stroke-width:2.06823;stroke-linecap:butt;stroke-linejoin:miter;stroke-miterlimit:4;stroke-dasharray:none;stroke-dashoffset:0;stroke-opacity:1;-inkscape-stroke:none;paint-order:stroke fill markers;stop-color:#000000;stop-opacity:1"
           d="m 86.52106,229.29407 c -6.917753,2.0363 -6.647152,8.53812 -8.800028,15.78601 7.098851,4.82298 6.658368,14.25365 8.673615,23.16845 0.677966,2.9991 17.606193,2.73609 17.929353,0.17465 1.09118,-8.64894 0.60212,-17.87373 7.74222,-23.8088 -0.77104,-8.3968 -2.93851,-13.74791 -7.74343,-16.42755 l -4.06073,6.36168 -11.416651,0.3975 z"
           id="path24"
           sodipodi:nodetypes="ccssccccc" /><path
           style="font-variation-settings:normal;opacity:1;vector-effect:none;fill:#000000;fill-opacity:1;stroke-width:0.72388;stroke-linecap:butt;stroke-linejoin:miter;stroke-miterlimit:4;stroke-dasharray:none;stroke-dashoffset:0;stroke-opacity:1;-inkscape-stroke:none;paint-order:stroke fill markers;stop-color:#000000;stop-opacity:1"
           d="m 76.711882,226.3623 c 0.264301,-0.0819 0.539176,-0.16044 0.825234,-0.23529 -2.495484,14.14622 -1.383172,27.30715 0.142754,39.76014 -0.09609,0.008 -0.191673,0.007 -0.286537,-0.002 -2.72865,-12.70666 -3.056241,-29.72399 -0.681451,-39.52272 z"
           id="path28"
           sodipodi:nodetypes="cccccc" /><path
           style="font-variation-settings:normal;opacity:1;vector-effect:none;fill:#000000;fill-opacity:1;stroke-width:0.72388;stroke-linecap:butt;stroke-linejoin:miter;stroke-miterlimit:4;stroke-dasharray:none;stroke-dashoffset:0;stroke-opacity:1;-inkscape-stroke:none;paint-order:stroke fill markers;stop-color:#000000;stop-opacity:1"
           d="m 116.17517,226.62751 c 0.4465,0.15481 0.85572,0.2657 1.243,0.34988 -1.61988,12.62623 -2.45548,25.32376 -2.13671,38.12623 -0.36894,0.0866 -0.74405,0.16091 -1.1196,0.2343 -0.20716,-15.1119 0.46723,-24.03681 2.01331,-38.71041 z"
           id="path29"
           sodipodi:nodetypes="ccccc" /><path
           id="path30"
           style="opacity:1;fill:#000000;stroke-width:0.72388;paint-order:stroke fill markers"
           d="m 123.49272,228.00572 c -0.0762,0.004 -0.15128,0.0135 -0.22479,0.0274 -0.48215,0.0913 -0.89576,0.39847 -1.10123,1.01337 -2.11739,6.33672 -4.69326,22.47453 -3.51813,32.45642 0.08,0.67973 0.58969,0.98374 1.27279,1.01544 0.5317,0.0247 1.16727,-0.1187 1.78697,-0.37568 v -0.98341 c -0.30754,0.0711 -1.0021,0.25646 -1.27037,0.244 -0.63292,-0.0294 -0.70807,-0.46324 -0.78221,-1.09304 -1.08882,-9.24876 1.29836,-24.2013 3.26026,-30.07258 0.19038,-0.56974 0.4915,-0.98353 0.93824,-1.0681 0.23826,-0.0451 0.57606,0.0988 0.83065,0.15497 v -1.05316 c -0.38214,-0.18258 -0.80115,-0.28711 -1.19218,-0.26562 z"
           sodipodi:nodetypes="sssssccssssccs" /><circle
           style="font-variation-settings:normal;opacity:1;vector-effect:none;fill:#ffffff;fill-opacity:1;stroke:#000000;stroke-width:2.06823;stroke-linecap:butt;stroke-linejoin:miter;stroke-miterlimit:4;stroke-dasharray:none;stroke-dashoffset:0;stroke-opacity:1;-inkscape-stroke:none;paint-order:stroke fill markers;stop-color:#000000;stop-opacity:1"
           id="circle30"
           cx="94.6978"
           cy="217.08171"
           r="2.561336" /><path
           id="path31"
           style="opacity:1;fill:#000000;stroke-width:0.72388;paint-order:stroke fill markers"
           d="m 100.67189,230.53063 5.72162,-9.30279 -0.41135,-0.28784 -5.55728,8.60258 -0.905373,0.28835 -9.920325,0.32918 -0.617016,-0.6997 -2.510958,-8.19123 2.222603,9.0966 0.658358,1.0294 10.537858,-0.49403 z"
           sodipodi:nodetypes="cccccccccccc" /><path
           id="path35"
           style="font-variation-settings:normal;opacity:1;vector-effect:none;fill:#000000;fill-opacity:1;stroke:none;stroke-width:2.06823;stroke-linecap:butt;stroke-linejoin:miter;stroke-miterlimit:4;stroke-dasharray:none;stroke-dashoffset:0;stroke-opacity:1;-inkscape-stroke:none;paint-order:stroke fill markers;stop-color:#000000;stop-opacity:1"
           d="m 87.771101,238.37313 c -1.929033,-1.2e-4 -3.492905,1.5636 -3.49296,3.49264 0.0031,1.50015 0.963795,2.83078 2.386763,3.30581 0,0 -0.423352,0.60525 0,1.3802 0.423353,0.77495 1.788711,0.89148 2.212064,0 0.423353,-0.89148 0,-1.3802 0,-1.3802 1.422968,-0.47503 2.383671,-1.80566 2.386764,-3.30581 -5.5e-5,-1.92891 -1.563727,-3.49259 -3.492631,-3.49264 z"
           sodipodi:nodetypes="ccczzccc" /><path
           id="path36"
           style="font-variation-settings:normal;opacity:1;vector-effect:none;fill:#000000;fill-opacity:1;stroke:none;stroke-width:2.06823;stroke-linecap:butt;stroke-linejoin:miter;stroke-miterlimit:4;stroke-dasharray:none;stroke-dashoffset:0;stroke-opacity:1;-inkscape-stroke:none;paint-order:stroke fill markers;stop-color:#000000;stop-opacity:1"
           d="m 102.53874,238.37313 c -1.92903,-1.2e-4 -3.492901,1.5636 -3.492956,3.49264 0.0031,1.50015 0.963796,2.83078 2.386766,3.30581 0,0 -0.42335,0.60525 0,1.3802 0.42335,0.77495 1.78871,0.89148 2.21207,0 0.42334,-0.89148 0,-1.3802 0,-1.3802 1.42296,-0.47503 2.38366,-1.80566 2.38676,-3.30581 -6e-5,-1.92891 -1.56373,-3.49259 -3.49264,-3.49264 z"
           sodipodi:nodetypes="ccczzccc" /><rect
           style="opacity:1;fill:#000000;stroke-width:0.72388;paint-order:stroke fill markers"
           id="rect38"
           width="9.9935246"
           height="1.8357525"
           x="89.372948"
           y="255.55827" /></g><path
         style="font-variation-settings:normal;opacity:1;fill:none;fill-opacity:1;stroke:#000000;stroke-width:1;stroke-linecap:butt;stroke-linejoin:miter;stroke-miterlimit:4;stroke-dasharray:none;stroke-dashoffset:0;stroke-opacity:1;paint-order:stroke fill markers"
         d="m 127.13229,210.21146 c 19.97793,0.82637 12.21852,26.30815 11.37708,45.64062"
         id="path49"
         sodipodi:nodetypes="cc" /><path
         style="font-variation-settings:normal;opacity:1;fill:none;fill-opacity:1;stroke:#000000;stroke-width:1;stroke-linecap:butt;stroke-linejoin:miter;stroke-miterlimit:4;stroke-dasharray:none;stroke-dashoffset:0;stroke-opacity:1;paint-order:stroke fill markers"
         d="M 69.732541,209.41771 C 49.75462,210.24408 57.514027,235.72586 58.355467,255.05833"
         id="path50"
         sodipodi:nodetypes="cc" /></g></g></svg>
