<?xml version="1.0" encoding="UTF-8" standalone="no"?>
<!-- Created with Inkscape (http://www.inkscape.org/) -->

<svg
   width="200mm"
   height="200mm"
   viewBox="0 0 217.4831 217.48311"
   version="1.1"
   id="svg1"
   inkscape:version="1.3 (0e150ed6c4, 2023-07-21)"
   sodipodi:docname="prueba.svg"
   xmlns:inkscape="http://www.inkscape.org/namespaces/inkscape"
   xmlns:sodipodi="http://sodipodi.sourceforge.net/DTD/sodipodi-0.dtd"
   xmlns="http://www.w3.org/2000/svg"
   xmlns:svg="http://www.w3.org/2000/svg">
  <sodipodi:namedview
     id="namedview1"
     pagecolor="#ffffff"
     bordercolor="#000000"
     borderopacity="0.25"
     inkscape:showpageshadow="2"
     inkscape:pageopacity="0.0"
     inkscape:pagecheckerboard="0"
     inkscape:deskcolor="#d1d1d1"
     inkscape:document-units="mm"
     inkscape:zoom="1.4142136"
     inkscape:cx="439.82042"
     inkscape:cy="354.61405"
     inkscape:window-width="2560"
     inkscape:window-height="1377"
     inkscape:window-x="-8"
     inkscape:window-y="-8"
     inkscape:window-maximized="1"
     inkscape:current-layer="layer1" />
  <defs
     id="defs1" />
  <g
     inkscape:label="Capa 1"
     inkscape:groupmode="layer"
     id="layer1"
     transform="translate(-22.601498,-15.914626)">
    <g
       id="g13"
       transform="translate(16.780386,59.653008)">
      <path
         id="path4"
         style="fill:#000000;fill-opacity:0.441527;stroke-width:1.42196;stroke-linecap:round;stroke-miterlimit:2.1;paint-order:fill markers stroke"
         d="m 63.876721,15.914791 1.390096,4.297929 C 63.170592,18.890779 60.890498,17.82998 58.459998,17.097664 53.492106,15.600948 48.204617,15.523192 43.194779,16.872872 28.799202,20.750753 20.017758,35.285564 23.281783,49.832617 c 1.392799,6.141709 4.755606,11.375272 9.291423,15.1691 h -9.971485 v 12.830741 h 44.354916 c 4.520415,6.63992 3.022497,15.713474 -3.513998,20.51296 -6.685103,4.908592 -16.069597,3.464922 -20.968746,-3.212724 -1.282684,-1.751001 -2.170041,-3.759617 -2.600875,-5.886979 l -12.572876,2.555917 c 3.001496,14.767618 17.213916,24.462108 32.058509,21.867918 14.844718,-2.59416 24.926306,-16.534682 22.741247,-31.445112 -0.225478,-1.512654 -0.576071,-2.977322 -1.028361,-4.39198 h 2.829802 l 11.725382,36.256702 h 12.830739 l 6.58461,-24.4321 c 10.40757,17.91644 31.18274,27.62365 51.97151,23.48849 22.96802,-4.5688 39.51029,-24.725809 39.51025,-48.143833 h -12.83901 -71.99819 l 5.25549,-19.499585 c 5.387,-8.42846 14.1652,-14.555917 24.63933,-16.281177 11.50866,-1.849104 23.20456,1.947744 31.4327,10.204029 l 9.13278,-9.132776 c -9.67884,-9.678996 -22.95954,-14.877045 -36.63704,-14.339693 -7.86098,0.308805 -15.51266,2.506027 -22.32267,6.375838 l 1.72858,-6.413562 h -12.83075 l -6.20944,23.039937 c -4.81157,7.700353 -7.47607,16.696142 -7.46879,26.046989 H 92.582463 l -15.875,-49.086926 z M 49.829,28.751217 c 4.810325,-0.189329 9.625556,1.935533 12.690698,6.106604 0.972666,1.325754 1.720806,2.802828 2.214335,4.371309 l 6.06423,-1.912545 8.953458,27.685132 H 72.432788 C 67.203114,60.623735 60.384474,58.153042 53.100118,58.540613 l -0.01085,-0.06046 C 47.455702,59.499821 41.732651,57.223605 38.338228,52.613326 33.439237,45.935685 34.879364,36.551355 41.555086,31.649748 44.05847,29.811672 46.942805,28.864814 49.829,28.751217 Z m 46.90308,49.081241 h 8.66614 l -3.9393,14.616163 z m 26.86968,0 h 67.72971 c -4.58311,12.115954 -15.28213,20.866333 -28.0665,22.954672 -16.99364,2.733 -33.56675,-6.858514 -39.66321,-22.954672 z" />
      <path
         id="path7"
         style="fill:#ffffff;fill-opacity:0.441527;stroke-width:1.42196;stroke-linecap:round;stroke-miterlimit:2.1;paint-order:fill markers stroke"
         d="m 65.266817,20.212678 5.531446,17.103858 6.171199,-1.946657 C 74.964654,29.013802 70.770554,23.683495 65.266817,20.212678 Z" />
      <path
         id="path9"
         style="fill:#ffffff;fill-opacity:0.441527;stroke-width:0.778969;stroke-linecap:round;stroke-miterlimit:2.1;paint-order:fill markers stroke"
         d="m 133.18722,22.328305 c -1.02638,0.58325 -2.03565,1.20007 -3.02152,1.8588 -5.842,3.915287 -10.67136,8.976224 -14.29009,14.767571 l -10.47739,38.877709 h 4.68912 c 0.53867,2.025367 1.20648,4.014157 1.99936,5.954157 0.85035,2.052907 1.86431,3.992187 2.95537,5.870434 l 6.64456,-24.655325 h -0.46922 c -0.001,-7.136767 2.10297,-13.833021 5.72471,-19.499578 z M 79.751721,65.001651 83.901339,77.832385 H 96.73208 L 92.582463,65.001651 Z" />
      <path
         id="path10"
         style="fill:#ffffff;fill-opacity:0.441527;stroke-width:1.42196;stroke-linecap:round;stroke-miterlimit:2.1;paint-order:fill markers stroke"
         d="m 32.572689,65.001571 c 5.464806,4.571017 12.638867,7.044407 20.199284,6.402707 5.366121,-0.65659 10.67034,1.62542 13.883907,5.972757 0.108911,0.14821 0.197567,0.30447 0.30024,0.45527 H 81.071537 C 79.43814,72.723538 76.392353,68.316288 72.432788,65.001571 Z" />
    </g>
  </g>
</svg>
